PathFileType	4	(X/Y/Z)	T1_P1_Vision_Movement_1_0-686.trc
DataRate	CameraRate	NumFrames	NumMarkers	Units	OrigDataRate	OrigDataStartFrame	OrigNumFrames
60	60	4	27	m	60	600	686
Frame#	Time	RHip			RKnee			RAnkle			RBigToe			RSmallToe			RHeel			LHip			LKnee			LAnkle			LBigToe			LSmallToe			LHeel			Neck			Head			Nose			RShoulder			RElbow			RWrist			RThumb			RIndex			RPinky			LShoulder			LElbow			LWrist			LThumb			LIndex			LPinky		
		X1	Y1	Z1	X2	Y2	Z2	X3	Y3	Z3	X4	Y4	Z4	X5	Y5	Z5	X6	Y6	Z6	X7	Y7	Z7	X8	Y8	Z8	X9	Y9	Z9	X10	Y10	Z10	X11	Y11	Z11	X12	Y12	Z12	X13	Y13	Z13	X14	Y14	Z14	X15	Y15	Z15	X16	Y16	Z16	X17	Y17	Z17	X18	Y18	Z18	X19	Y19	Z19	X20	Y20	Z20	X21	Y21	Z21	X22	Y22	Z22	X23	Y23	Z23	X24	Y24	Z24	X25	Y25	Z25	X26	Y26	Z26	X27	Y27	Z27
601	10.016666666666667	-82.51915978109062	3901.790476858635	-718.7754014489376	264.84887285810777	3987.1929387439554	-678.6463600409346	617.0855759669915	4222.032441179312	-692.9630448946451	687.4045217067326	4073.4099736345024	-623.1571173654421	691.7016675527298	4097.760194007901	-709.9139247101602	654.976406360717	4283.900780272937	-697.2186173988313	-112.26334074045768	3985.770671309587	-514.016930032462	225.46164902158566	4065.7370772474355	-501.8846762655065	576.7519029001104	4323.591614068013	-540.8779612981573	660.2840169708662	4179.603007396275	-490.55439811081624	642.784873982501	4262.365658723587	-439.31933423761063	620.9541426487592	4370.531041154966	-569.299376692234	-695.8147233755863	3776.285624036728	-615.1839976554373	-937.4759603312482	3659.997672303548	-582.6900460241918	-792.614573528019	3675.497005036308	-548.4326979473934	-579.2905483950406	3710.875823375323	-731.9701615536363	-315.2769585051262	3706.0581886922796	-799.8774214501746	-470.56232980808005	3542.7232279155637	-664.7061034402756	-567.1290156272835	3466.041986418844	-610.6657073113887	-553.6284309308232	3427.1270279026694	-574.0879560850002	-536.88137803199	3433.1948309635204	-576.0702403138041	-634.6556022320972	3898.997346055002	-505.571701169176	-383.6007905991582	4043.527318324701	-465.8217626533647	-121.14938046664034	4006.3371877944014	-386.55489836417183	4.384641813228623	3974.1280049786683	-365.8651573913835	30.630485146709855	3968.9754726331785	-355.0244742651293	19.684024426081226	4077.50520822792	-368.28696439858095
602	10.033333333333333	-82.49494030994477	3901.98077311612	-718.8473485385902	271.53242520952693	3994.7560783462845	-680.9221941353381	623.2661701533655	4226.507609918835	-693.2014369025283	687.7869921176814	4074.142682427779	-623.420485053289	699.6513095901894	4123.686991606605	-726.5824520015409	660.1379315562612	4307.448754111507	-711.4802182929961	-106.41400613468977	3960.4815563669667	-508.6879097750952	222.61844543428538	4087.1668547993886	-517.181441802759	578.929063419315	4295.482432820852	-533.7392242284643	655.6259341976964	4147.716019301454	-483.8938781450229	636.2185906663295	4256.863001262895	-436.4882175020191	623.729583181992	4340.668725254004	-561.7168644767262	-695.841493564419	3776.183796473389	-615.1034689102037	-933.8269164893529	3643.37772894291	-569.5176258935148	-792.9536805294307	3674.9156424830626	-542.4022795400899	-579.2884854435359	3710.6865351439587	-731.762844991006	-315.7533493560281	3706.832750142025	-794.3785541353559	-464.92272765718087	3527.4456875147002	-650.3808599552757	-560.9508094450483	3454.5471249576076	-599.413398778636	-554.973833114596	3413.547074969547	-562.5983635651328	-536.7962106368415	3433.0284262679647	-575.9356837293404	-630.0840260884763	3901.7402210863797	-506.50451153206336	-380.8752055555334	4013.66459754	-459.4974097336022	-126.05154120189225	4002.677752032446	-385.09168729245243	4.5174954823421345	3974.414353121112	-365.89689689064795	30.686533618534586	3969.3679150300054	-355.02579552217753	19.63902136504714	4078.0084990959917	-368.3219258799311
603	10.05	-82.53719412375199	3901.695372822049	-718.6922440815857	262.33749833937577	3971.1831721523363	-665.4465210100147	617.068823099618	4223.386385393093	-693.4971886353942	692.9818249917518	4096.115841495287	-638.9490343261716	703.2969772378118	4157.20533230353	-738.8427257256865	666.5190921033579	4311.852855103295	-713.6045196711178	-100.80752941615675	3989.707148597074	-514.9937766078889	220.1177425719045	4066.001469432398	-502.3193790900908	582.7330228770506	4327.242597985252	-540.3465062450825	655.042587017493	4156.098026208949	-474.5430685284287	636.3814720442052	4256.955057811685	-436.44499647772057	627.7343560366685	4373.983607089945	-568.963572252087	-695.8676198929256	3776.110884262512	-615.0915274232278	-937.4222781969864	3659.772712484888	-582.6968581902138	-792.7354428579529	3675.0914330891715	-548.2240381899757	-579.366210871828	3710.7424479159567	-731.8169697578512	-321.16918675650356	3705.0393725416893	-794.6513449743641	-464.9922342223376	3527.4958962327432	-650.4720360994623	-563.2043016115937	3452.4619296052747	-598.0969263684007	-554.7359953203281	3414.0767112821427	-563.0265774887779	-536.6705752091538	3433.1991879193497	-576.0183060344266	-630.0940914126605	3901.7030381898517	-506.5251086109437	-388.8115699801846	4039.4282907460884	-464.1747739326398	-121.21142216015527	4006.3495726469523	-386.5510496560746	-0.3924266444984289	3970.535734153196	-364.1990840011208	25.50195292507272	3965.569780806062	-353.55610694643934	19.6960172864334	4077.7153992263884	-368.4623346569999
604	10.066666666666666	-82.63794956327466	3901.9531781319392	-718.7773113297371	271.61283210629256	3994.602172848415	-681.2054794208781	630.109079846316	4231.745950484274	-695.6323605848619	692.9218147207752	4095.263892246493	-638.8455172754855	716.0600451232704	4159.956916689953	-737.4423449400019	673.1732867860815	4315.633779136632	-713.0852399947295	-112.20380294689858	3985.7403924486152	-514.0025248854718	220.11282757375264	4065.867498342479	-502.2528930007383	582.6850128953009	4326.956631260884	-540.3413536692071	655.5546775266033	4148.078934447443	-483.98231062211516	636.1943913666759	4257.140950016796	-436.56635826356745	627.6993672866278	4374.0323203220205	-568.9838137552445	-695.8370156862777	3776.1310068251323	-615.0892977287559	-937.5091025351142	3659.845011551814	-582.6710376713501	-792.6975288692718	3675.335522620236	-548.2844878771352	-579.3452913676036	3710.696146125213	-731.7631787815573	-320.62218230278756	3704.237844841534	-800.1329506464597	-464.95061386391933	3527.5121198630227	-650.4590401375347	-565.9419430025595	3452.634559677639	-598.7013233292953	-554.8888019682382	3413.4008834415326	-562.4861205641814	-536.7363669325001	3432.8149340808122	-575.6664472020718	-630.0331556343069	3901.64014415762	-506.43645044272	-383.4922626101327	4043.4647187621767	-465.741913762255	-121.12713365250806	4006.436534192752	-386.4788239162633	-0.14833903662089912	3970.849882094456	-364.23754191600335	30.46538755911136	3969.619154829612	-355.2015474011239	19.705113490181077	4078.8483142935524	-368.652053375768
